<?xml version="1.0" encoding="UTF-8" standalone="no"?>
<svg width="399px" height="311px" viewBox="0 0 399 311" version="1.1" xmlns="http://www.w3.org/2000/svg" xmlns:xlink="http://www.w3.org/1999/xlink" xmlns:sketch="http://www.bohemiancoding.com/sketch/ns">
    <!-- Generator: Sketch 3.3.2 (12043) - http://www.bohemiancoding.com/sketch -->
    <title>Artboard 15</title>
    <desc>Created with Sketch.</desc>
    <defs></defs>
    <g id="Page-1" stroke="none" stroke-width="1" fill="none" fill-rule="evenodd" sketch:type="MSPage">
        <g id="Artboard-15" sketch:type="MSArtboardGroup">
            <g id="hamburger3-copy-2" sketch:type="MSLayerGroup">
                <g id="Group" transform="translate(0.000000, 0.100719)" sketch:type="MSShapeGroup">
                    <path d="M389.948319,86.3409072 C395.825256,98.0829579 398.869565,110.473011 398.869565,123.200468 C398.869565,140.231241 389.735452,155.174892 376.09653,163.418543 C378.79313,167.432518 384.187093,191.335573 384.187093,200.475771 C384.187093,207.167336 380.068304,232.218867 376.757687,237.518615 C387.583974,240.308273 398.869565,247.696349 398.869565,267.284209 C398.869565,291.175252 381.522365,310.612482 360.199765,310.612482 L38.6722174,310.612482 C17.3484087,310.612482 0,291.175252 0,267.284209 C0,247.701169 11.2807565,240.311888 22.1046261,237.52223 C18.7952174,232.221277 13.4304906,214.300144 13.4304906,207.609784 C13.4304906,198.468381 16.2787132,172.342073 22.1046262,166.148188 C17.3133567,161.541335 0,140.231241 0,123.200468 C0,89.4835612 21.3649043,58.1345504 60.1592,34.9279676 C97.5030609,12.5890108 146.966513,0.286798561 199.434783,0.286798561 C224.054394,0.286798561 248.011916,2.99531891 270.366118,8.17832442 L267.612599,17.7940035 C267.612599,17.7940035 262.242939,32.4062092 272.233722,39.2690818 C282.224506,46.1319544 299.590149,33.3188765 299.590149,33.3188765 L313.695205,40.9495513 C313.695205,40.9495513 299.503296,55.1816254 312.409288,63.6752571 C325.315281,72.1688889 341.63867,59.9736733 341.63867,59.9736733 L352.220252,65.8963094 C352.220252,65.8963094 345.002963,78.8500692 356.154903,86.354772 C367.306843,93.8594748 380.527819,88.5781476 380.527819,88.5781476 L389.948319,86.3409072 Z" id="Path" fill="#000000"></path>
                    <path d="M51.5968,174.022784 L101.26573,174.022784 C108.487687,177.017017 152.157861,195.80425 189.033957,226.620139 L51.5968,226.620139 C42.4469739,226.620139 35.0038261,214.821366 35.0038261,200.31763 C35.0038261,185.819641 42.4481826,174.022784 51.5968,174.022784 L51.5968,174.022784 Z M338.704322,174.022784 L347.272765,174.022784 C356.422591,174.022784 363.866948,185.819641 363.866948,200.319546 C363.866948,214.821366 356.422591,226.622054 347.272765,226.622054 L281.85453,226.622054 C297.578452,206.6605 317.373261,185.915426 338.704322,174.022784 L338.704322,174.022784 Z" id="Shape" fill="#531E11"></path>
                    <path d="M159.558704,174.022784 L297.3766,174.022784 C271.008904,199.58775 250.169783,231.395969 239.864443,248.524209 C219.837565,216.472696 187.572643,191.396233 159.558704,174.022784 L159.558704,174.022784 Z" id="Path" fill="#F7DF4E"></path>
                    <path d="M360.199765,292.536942 L38.6722174,292.536942 C27.3455304,292.536942 18.1304348,281.209604 18.1304348,267.284209 C18.1304348,259.202032 19.5603217,253.903489 38.6722174,253.903489 L217.542252,253.903489 C223.427391,258.559748 228.567974,263.488345 232.617104,268.671205 C234.292357,270.814964 236.847539,272.092302 239.571939,272.152554 C239.638417,272.153759 239.703687,272.153759 239.770165,272.153759 C242.423252,272.153759 244.948217,270.993309 246.673026,268.974874 C246.821696,268.800144 252.168965,262.603849 261.237809,253.903489 L360.198557,253.903489 C379.309243,253.903489 380.737922,259.200827 380.737922,267.284209 C380.73913,281.208399 371.525243,292.536942 360.199765,292.536942 L360.199765,292.536942 Z" id="Path" fill="#CD8B34"></path>
                    <path d="M69.487913,50.4271403 C104.0554,29.7499281 150.204609,18.3623381 199.434783,18.3623381 C216.948793,18.3623381 250.424597,22.5916349 250.424597,22.5916349 C250.424597,22.5916349 245.936994,39.7769219 261.499228,50.4271394 C277.061461,61.0773568 288.890636,55.1115108 288.890636,55.1115108 C288.890636,55.1115108 288.536766,67.3150811 305.19556,75.6909187 C321.854354,84.0667562 331.171801,79.6144521 331.171801,79.6144521 C331.171801,79.6144521 334.17506,94.1548183 348.787448,101.349271 C363.399837,108.543723 378.226093,104.869757 378.226093,104.869757 C378.226093,104.869757 380.73913,116.751458 380.73913,123.200468 C380.73913,139.147914 367.726313,152.123741 351.730435,152.123741 L47.1391304,152.123741 C31.1432522,152.123741 18.1304348,139.149119 18.1304348,123.200468 C18.1304348,96.0823381 36.3696522,70.2379317 69.487913,50.4271403 Z" id="Path" fill="#CD8B34"></path>
                </g>
                <path d="M98.0230505,117.859765 C98.0230505,117.859765 116.622482,88.5270793 134.0932,85.0739499 C147.068444,82.5093616 163.060859,105.111742 174.120201,114.470158 C177.951881,117.712525 181.693115,121.686148 184.178032,118.547671 C186.662949,115.409193 184.869966,113.122095 182.341359,108.211377 C175.06083,94.0721196 153.072056,72.2457778 133.853651,73.5477856 C107.960484,75.3019949 89.8216362,111.483506 89.8216362,111.483506 C89.8216362,111.483506 85.5595015,115.400858 86.8576197,121.195475 C88.1557379,126.990091 98.0230505,117.859765 98.0230505,117.859765 L98.0230505,117.859765 Z" id="Path-19" fill="#000000" sketch:type="MSShapeGroup"></path>
                <path d="M230.979572,117.859765 C230.979572,117.859765 249.579004,88.5270793 267.049721,85.0739499 C280.024965,82.5093616 296.017381,105.111742 307.076723,114.470158 C310.908402,117.712525 314.649637,121.686148 317.134553,118.547671 C319.61947,115.409193 317.826488,113.122095 315.297881,108.211377 C308.017352,94.0721196 286.028577,72.2457778 266.810172,73.5477856 C240.917006,75.3019949 222.778158,111.483506 222.778158,111.483506 C222.778158,111.483506 218.516023,115.400858 219.814141,121.195475 C221.11226,126.990091 230.979572,117.859765 230.979572,117.859765 L230.979572,117.859765 Z" id="Path-19-Copy" fill="#000000" sketch:type="MSShapeGroup"></path>
            </g>
        </g>
    </g>
</svg>