<?xml version="1.0" encoding="UTF-8" standalone="no"?>
<svg width="375px" height="775px" viewBox="0 0 375 775" version="1.1" xmlns="http://www.w3.org/2000/svg" xmlns:xlink="http://www.w3.org/1999/xlink" xmlns:sketch="http://www.bohemiancoding.com/sketch/ns">
    <!-- Generator: Sketch 3.3.2 (12043) - http://www.bohemiancoding.com/sketch -->
    <title>Artboard 17 Copy</title>
    <desc>Created with Sketch.</desc>
    <defs></defs>
    <g id="Page-1" stroke="none" stroke-width="1" fill="none" fill-rule="evenodd" sketch:type="MSPage">
        <g id="Artboard-17-Copy" sketch:type="MSArtboardGroup">
            <rect id="Rectangle-30" stroke="#979797" fill="#D8D8D8" sketch:type="MSShapeGroup" x="15" y="58" width="344" height="642"></rect>
            <path d="M37.9989434,0 C17.0127064,0 0,17.0216628 0,38.0032218 L0,736.996778 C0,757.985378 17.0103896,775 37.9989434,775 L337.001057,775 C357.987294,775 375,757.978337 375,736.996778 L375,38.0032218 C375,17.014622 357.98961,0 337.001057,0 L37.9989434,0 Z M22.9124236,94.0088757 L22.9124236,679.462525 L352.087576,679.462525 L352.087576,94.0088757 L22.9124236,94.0088757 Z M187.118126,751.306706 C203.146757,751.306706 216.14053,738.303536 216.14053,722.263314 C216.14053,706.223091 203.146757,693.219921 187.118126,693.219921 C171.089496,693.219921 158.095723,706.223091 158.095723,722.263314 C158.095723,738.303536 171.089496,751.306706 187.118126,751.306706 Z M127.545825,55.0295858 C130.920273,55.0295858 133.655804,52.2920764 133.655804,48.9151874 C133.655804,45.5382984 130.920273,42.800789 127.545825,42.800789 C124.171376,42.800789 121.435845,45.5382984 121.435845,48.9151874 C121.435845,52.2920764 124.171376,55.0295858 127.545825,55.0295858 Z M163.441994,42.800789 C160.067524,42.800789 157.331976,45.5451697 157.331976,48.9151874 C157.331976,52.2920764 160.076005,55.0295858 163.441994,55.0295858 L212.321753,55.0295858 C215.696223,55.0295858 218.431772,52.2852051 218.431772,48.9151874 C218.431772,45.5382984 215.687742,42.800789 212.321753,42.800789 L163.441994,42.800789 Z" id="Apple-iPhone-6-Copy" fill="#FFFFFF" sketch:type="MSShapeGroup"></path>
            <circle id="Oval-6-Copy" fill="#D8D8D8" sketch:type="MSShapeGroup" cx="187.1" cy="722.3" r="29.5"></circle>
            <ellipse id="Oval-5-Copy" fill="#D1D6DA" sketch:type="MSShapeGroup" cx="127.6" cy="49.0000002" rx="6.30000019" ry="6.30000019"></ellipse>
            <path d="M157.313265,48.5700366 C157.601438,42.656378 162.874436,42.7256825 162.874436,42.7256825 L212.986684,42.7256825 C212.986684,42.7256825 218.73462,43.6648314 218.73462,48.5700366 C218.73462,53.4752419 213.57622,55.2387857 213.57622,55.2387857 L162.874436,55.0791275 C162.874436,55.0791275 157.025093,54.4836953 157.313265,48.5700366 Z" id="Path-103-Copy" fill="#D1D6DA" sketch:type="MSShapeGroup"></path>
        </g>
    </g>
</svg>